<mxfile host="app.diagrams.net" modified="2021-03-26T00:17:29.047Z" agent="5.0 (Windows NT 10.0; Win64; x64) AppleWebKit/537.36 (KHTML, like Gecko) Chrome/89.0.4389.90 Safari/537.36" etag="w_VBmAfZx9c8JsUACGnW" version="14.0.3" type="github">
  <diagram id="wxsQoiZZfkCuwuspmRnZ" name="Page-1">
    <mxGraphModel dx="2249" dy="794" grid="1" gridSize="10" guides="1" tooltips="1" connect="1" arrows="1" fold="1" page="1" pageScale="1" pageWidth="827" pageHeight="1169" math="0" shadow="0">
      <root>
        <mxCell id="0" />
        <mxCell id="1" parent="0" />
        <mxCell id="8w0EfVHlun1V6sll65li-1" value="客户" style="swimlane;childLayout=stackLayout;horizontal=1;startSize=30;horizontalStack=0;rounded=1;fontSize=14;fontStyle=0;strokeWidth=2;resizeParent=0;resizeLast=1;shadow=0;dashed=0;align=center;" vertex="1" parent="1">
          <mxGeometry x="140" y="10" width="160" height="70" as="geometry" />
        </mxCell>
        <mxCell id="8w0EfVHlun1V6sll65li-2" value="+客户编号&#xa;" style="align=left;strokeColor=none;fillColor=none;spacingLeft=4;fontSize=12;verticalAlign=top;resizable=0;rotatable=0;part=1;" vertex="1" parent="8w0EfVHlun1V6sll65li-1">
          <mxGeometry y="30" width="160" height="40" as="geometry" />
        </mxCell>
        <mxCell id="8w0EfVHlun1V6sll65li-3" value="场地" style="swimlane;childLayout=stackLayout;horizontal=1;startSize=30;horizontalStack=0;rounded=1;fontSize=14;fontStyle=0;strokeWidth=2;resizeParent=0;resizeLast=1;shadow=0;dashed=0;align=center;" vertex="1" parent="1">
          <mxGeometry x="-160" y="150" width="160" height="90" as="geometry" />
        </mxCell>
        <mxCell id="8w0EfVHlun1V6sll65li-4" value="+客户编号&#xa;+场地编号" style="align=left;strokeColor=none;fillColor=none;spacingLeft=4;fontSize=12;verticalAlign=top;resizable=0;rotatable=0;part=1;" vertex="1" parent="8w0EfVHlun1V6sll65li-3">
          <mxGeometry y="30" width="160" height="60" as="geometry" />
        </mxCell>
        <mxCell id="8w0EfVHlun1V6sll65li-11" value="点位" style="swimlane;childLayout=stackLayout;horizontal=1;startSize=30;horizontalStack=0;rounded=1;fontSize=14;fontStyle=0;strokeWidth=2;resizeParent=0;resizeLast=1;shadow=0;dashed=0;align=center;" vertex="1" parent="1">
          <mxGeometry x="-280" y="360" width="160" height="90" as="geometry" />
        </mxCell>
        <mxCell id="8w0EfVHlun1V6sll65li-12" value="+客户编号&#xa;+场地编号&#xa;+点位编号" style="align=left;strokeColor=none;fillColor=none;spacingLeft=4;fontSize=12;verticalAlign=top;resizable=0;rotatable=0;part=1;" vertex="1" parent="8w0EfVHlun1V6sll65li-11">
          <mxGeometry y="30" width="160" height="60" as="geometry" />
        </mxCell>
        <mxCell id="8w0EfVHlun1V6sll65li-13" value="线路" style="swimlane;childLayout=stackLayout;horizontal=1;startSize=30;horizontalStack=0;rounded=1;fontSize=14;fontStyle=0;strokeWidth=2;resizeParent=0;resizeLast=1;shadow=0;dashed=0;align=center;" vertex="1" parent="1">
          <mxGeometry x="-40" y="360" width="160" height="90" as="geometry" />
        </mxCell>
        <mxCell id="8w0EfVHlun1V6sll65li-14" value="+客户编号&#xa;+场地编号&#xa;+线路编号" style="align=left;strokeColor=none;fillColor=none;spacingLeft=4;fontSize=12;verticalAlign=top;resizable=0;rotatable=0;part=1;" vertex="1" parent="8w0EfVHlun1V6sll65li-13">
          <mxGeometry y="30" width="160" height="60" as="geometry" />
        </mxCell>
        <mxCell id="8w0EfVHlun1V6sll65li-15" value="项目" style="swimlane;childLayout=stackLayout;horizontal=1;startSize=30;horizontalStack=0;rounded=1;fontSize=14;fontStyle=0;strokeWidth=2;resizeParent=0;resizeLast=1;shadow=0;dashed=0;align=center;" vertex="1" parent="1">
          <mxGeometry x="350" y="150" width="160" height="90" as="geometry" />
        </mxCell>
        <mxCell id="8w0EfVHlun1V6sll65li-16" value="+客户编号&#xa;+项目编号" style="align=left;strokeColor=none;fillColor=none;spacingLeft=4;fontSize=12;verticalAlign=top;resizable=0;rotatable=0;part=1;" vertex="1" parent="8w0EfVHlun1V6sll65li-15">
          <mxGeometry y="30" width="160" height="60" as="geometry" />
        </mxCell>
        <mxCell id="8w0EfVHlun1V6sll65li-18" value="巡更计划" style="swimlane;childLayout=stackLayout;horizontal=1;startSize=30;horizontalStack=0;rounded=1;fontSize=14;fontStyle=0;strokeWidth=2;resizeParent=0;resizeLast=1;shadow=0;dashed=0;align=center;" vertex="1" parent="1">
          <mxGeometry x="350" y="360" width="160" height="90" as="geometry" />
        </mxCell>
        <mxCell id="8w0EfVHlun1V6sll65li-19" value="+项目编号&#xa;+计划编号" style="align=left;strokeColor=none;fillColor=none;spacingLeft=4;fontSize=12;verticalAlign=top;resizable=0;rotatable=0;part=1;" vertex="1" parent="8w0EfVHlun1V6sll65li-18">
          <mxGeometry y="30" width="160" height="60" as="geometry" />
        </mxCell>
      </root>
    </mxGraphModel>
  </diagram>
</mxfile>
